<!-- Generated by IcoMoon.io -->
<svg version="1.1" xmlns="http://www.w3.org/2000/svg" width="768" height="768" viewBox="0 0 768 768">
<title></title>
<g id="icomoon-ignore">
</g>
<path fill="#000" d="M417.75 1.050c-91.5 7.2-186.75 25.35-320.4 60.9-29.1 7.8-45.3 16.5-62.25 33.6-22.95 22.8-34.35 50.85-34.35 84.45 0 26.1 5.4 44.7 18.6 64.8 27.45 41.85 76.65 62.55 124.65 52.5 10.5-2.25 20.4-5.85 38.25-14.25 71.1-33.3 145.95-62.55 205.5-80.4 78.45-23.4 125.55-27.6 187.5-16.5 45.6 8.25 90.45 22.95 136.5 44.55 20.4 9.75 29.55 10.95 40.35 5.7 11.85-5.85 18.3-21.3 14.4-34.35-3-10.35-27.6-41.4-56.25-71.4-71.1-74.1-153.9-120.15-232.5-129.15-12.3-1.35-45.45-1.65-60-0.45zM474.15 61.65c34.95 4.5 69.45 17.4 103.95 38.55 15.3 9.3 44.4 30.3 47.55 34.35 1.2 1.35 1.5 2.1 0.6 1.65-3.15-1.8-37.65-9-57.45-11.7-71.1-10.2-129.45-2.25-231.3 31.5-57.15 18.9-113.55 41.55-176.25 70.65l-27 12.6h-14.25c-12.9 0-15.15-0.45-24-4.65-14.25-6.9-22.95-15.15-29.55-28.8-5.4-10.8-5.7-12.15-5.7-25.65 0-13.050 0.45-15.3 4.8-24.45 2.55-5.55 7.5-13.050 10.8-16.65 10.95-11.85 18.9-14.85 79.95-30.15 146.7-36.9 263.7-54.3 317.85-47.25z"></path>
<path fill="#000" d="M624.75 222c-4.35 1.050-129.3 43.65-134.55 45.75-1.5 0.6-81.15 80.55-177 177.75-185.55 187.8-182.1 184.2-188.85 205.5-15.75 50.55 15.75 103.95 67.65 114.9 13.8 3 31.2 2.1 45-2.25 21.9-6.9 16.5-1.8 204-191.55l175.2-177.3 18-55.2c26.25-80.4 27.3-83.7 27.3-88.95 0-9.6-7.65-21.75-16.5-26.4-5.1-2.55-14.85-3.75-20.25-2.25zM583.5 301.050c0 0.6-4.5 14.7-10.050 31.35l-10.050 30.15-71.55 72.6-71.7 72.6v-85.5l100.8-101.7 29.4-10.2c29.55-10.2 33.15-11.25 33.15-9.3zM330 599.25l-30 30v-85.5l59.25-59.25 0.45 42.3 0.3 42.45-30 30zM232.5 697.8c-8.7 8.1-16.8 10.95-26.85 9.6-18-2.4-29.1-20.1-24.15-38.4 1.5-5.85 5.7-10.65 29.85-34.95l27.9-28.2 0.9 84.9-7.65 7.050z"></path>
</svg>
